<svg xmlns="http://www.w3.org/2000/svg" xmlns:xlink="http://www.w3.org/1999/xlink" width="373" zoomAndPan="magnify" viewBox="0 0 279.75 34.499999" height="46" preserveAspectRatio="xMidYMid meet" version="1.0"><defs><g/></defs><g fill="#fcffde" fill-opacity="1"><g transform="translate(17.634089, 19.97855)"><g><path d="M 2.082031 -2.128906 L 5.5 -2.128906 L 6.304688 0 L 7.605469 0 L 4.222656 -8.53125 L 3.332031 -8.53125 L -0.046875 0 L 1.261719 0 Z M 5.054688 -3.273438 L 2.527344 -3.273438 L 3.789062 -6.59375 Z M 5.054688 -3.273438 "/></g></g></g><g fill="#fcffde" fill-opacity="1"><g transform="translate(32.139918, 19.97855)"><g><path d="M 7.710938 -8.507812 L 6.414062 -8.507812 L 3.851562 -2.117188 L 1.3125 -8.507812 L -0.0117188 -8.507812 L 3.40625 0.0234375 L 4.296875 0.0234375 Z M 7.710938 -8.507812 "/></g></g></g><g fill="#fcffde" fill-opacity="1"><g transform="translate(46.633722, 19.97855)"><g><path d="M 6.171875 -1.214844 L 2.261719 -1.214844 L 2.261719 -3.695312 L 6.074219 -3.695312 L 6.074219 -4.921875 L 2.261719 -4.921875 L 2.261719 -7.292969 L 6.160156 -7.292969 L 6.160156 -8.507812 L 1.035156 -8.507812 L 1.035156 0 L 6.171875 0 Z M 6.171875 -1.214844 "/></g></g></g><g fill="#fcffde" fill-opacity="1"><g transform="translate(60.225728, 19.97855)"><g><path d="M 4.101562 -4.269531 L 2.683594 -4.269531 L 2.683594 -3.695312 L 5.75 0 L 7.328125 0 L 4.667969 -3.164062 C 6.113281 -3.417969 6.847656 -4.546875 6.847656 -5.738281 C 6.847656 -7.074219 5.929688 -8.53125 4.101562 -8.53125 L 1.035156 -8.53125 L 1.035156 0 L 2.238281 0 L 2.238281 -7.304688 L 4.101562 -7.304688 C 5.125 -7.304688 5.628906 -6.460938 5.628906 -5.738281 C 5.628906 -5.003906 5.125 -4.269531 4.101562 -4.269531 Z M 4.101562 -4.269531 "/></g></g></g><g fill="#fcffde" fill-opacity="1"><g transform="translate(74.274645, 19.97855)"><g><path d="M 3.621094 -4.714844 L 1.25 -8.578125 L -0.179688 -8.578125 L 3.007812 -3.429688 L 3.007812 0 L 4.234375 0 L 4.234375 -3.429688 L 7.460938 -8.578125 L 6.015625 -8.578125 Z M 3.621094 -4.714844 "/></g></g></g><g fill="#fcffde" fill-opacity="1"><g transform="translate(88.407737, 19.97855)"><g/></g></g><g fill="#fcffde" fill-opacity="1"><g transform="translate(98.284303, 19.97855)"><g><path d="M 4.113281 -8.421875 L 1.035156 -8.421875 L 1.035156 0 L 2.261719 0 L 2.261719 -2.804688 L 4.113281 -2.804688 C 5.929688 -2.804688 6.847656 -4.199219 6.847656 -5.605469 C 6.847656 -7.015625 5.929688 -8.421875 4.113281 -8.421875 Z M 4.113281 -4.007812 L 2.261719 -4.007812 L 2.261719 -7.195312 L 4.113281 -7.195312 C 5.136719 -7.195312 5.644531 -6.402344 5.644531 -5.59375 C 5.644531 -4.800781 5.136719 -4.007812 4.113281 -4.007812 Z M 4.113281 -4.007812 "/></g></g></g><g fill="#fcffde" fill-opacity="1"><g transform="translate(112.309169, 19.97855)"><g><path d="M 2.082031 -2.128906 L 5.5 -2.128906 L 6.304688 0 L 7.605469 0 L 4.222656 -8.53125 L 3.332031 -8.53125 L -0.046875 0 L 1.261719 0 Z M 5.054688 -3.273438 L 2.527344 -3.273438 L 3.789062 -6.59375 Z M 5.054688 -3.273438 "/></g></g></g><g fill="#fcffde" fill-opacity="1"><g transform="translate(126.815, 19.97855)"><g><path d="M 4.042969 0.0859375 C 5.488281 0.0859375 7.148438 -0.804688 7.148438 -2.515625 L 7.148438 -8.507812 L 5.917969 -8.507812 L 5.917969 -2.527344 C 5.917969 -1.601562 4.921875 -1.132812 4.042969 -1.132812 C 3.152344 -1.132812 2.152344 -1.589844 2.152344 -2.515625 L 2.152344 -8.507812 L 0.925781 -8.507812 L 0.925781 -2.527344 C 0.925781 -0.804688 2.5625 0.0859375 4.042969 0.0859375 Z M 4.042969 0.0859375 "/></g></g></g><g fill="#fcffde" fill-opacity="1"><g transform="translate(141.765729, 19.97855)"><g><path d="M 6.207031 -1.214844 L 2.25 -1.214844 L 2.25 -8.421875 L 1.035156 -8.421875 L 1.035156 0 L 6.207031 0 Z M 6.207031 -1.214844 "/></g></g></g><g fill="#fcffde" fill-opacity="1"><g transform="translate(154.912851, 19.97855)"><g><path d="M 2.082031 -2.128906 L 5.5 -2.128906 L 6.304688 0 L 7.605469 0 L 4.222656 -8.53125 L 3.332031 -8.53125 L -0.046875 0 L 1.261719 0 Z M 5.054688 -3.273438 L 2.527344 -3.273438 L 3.789062 -6.59375 Z M 5.054688 -3.273438 "/></g></g></g><g fill="#fcffde" fill-opacity="1"><g transform="translate(169.418682, 19.97855)"><g/></g></g><g fill="#fcffde" fill-opacity="1"><g transform="translate(179.295254, 19.97855)"><g><path d="M 7.496094 -5.460938 L 8.820312 -5.460938 C 8.363281 -7.75 6.375 -8.554688 4.726562 -8.554688 C 2.359375 -8.554688 0.503906 -6.738281 0.503906 -4.199219 C 0.503906 -1.671875 2.320312 0.144531 4.726562 0.144531 C 6.292969 0.144531 8.050781 -1 8.636719 -2.636719 L 8.636719 -2.621094 C 8.757812 -2.910156 8.820312 -3.394531 8.878906 -4.113281 L 4.246094 -4.113281 L 4.246094 -2.875 L 7.421875 -2.875 C 6.917969 -1.625 5.789062 -1.046875 4.726562 -1.046875 C 3.042969 -1.046875 1.746094 -2.382812 1.746094 -4.199219 C 1.746094 -6.003906 3.042969 -7.316406 4.726562 -7.316406 C 5.824219 -7.316406 7.148438 -6.847656 7.496094 -5.460938 Z M 7.496094 -5.460938 "/></g></g></g><g fill="#fcffde" fill-opacity="1"><g transform="translate(195.688865, 19.97855)"><g><path d="M 4.042969 0.0859375 C 5.488281 0.0859375 7.148438 -0.804688 7.148438 -2.515625 L 7.148438 -8.507812 L 5.917969 -8.507812 L 5.917969 -2.527344 C 5.917969 -1.601562 4.921875 -1.132812 4.042969 -1.132812 C 3.152344 -1.132812 2.152344 -1.589844 2.152344 -2.515625 L 2.152344 -8.507812 L 0.925781 -8.507812 L 0.925781 -2.527344 C 0.925781 -0.804688 2.5625 0.0859375 4.042969 0.0859375 Z M 4.042969 0.0859375 "/></g></g></g><g fill="#fcffde" fill-opacity="1"><g transform="translate(210.639583, 19.97855)"><g><path d="M 3.8125 -7.375 L 5.378906 -7.375 L 5.378906 -8.496094 L 1.035156 -8.496094 L 1.035156 -7.375 L 2.597656 -7.375 L 2.597656 -1.132812 L 1.035156 -1.132812 L 1.035156 0 L 5.378906 0 L 5.378906 -1.132812 L 3.8125 -1.132812 Z M 3.8125 -7.375 "/></g></g></g><g fill="#fcffde" fill-opacity="1"><g transform="translate(223.918964, 19.97855)"><g><path d="M 1.035156 -8.421875 L 1.035156 0 L 2.25 0 L 2.25 -5.882812 L 6.316406 0 L 7.277344 0 L 7.277344 -8.421875 L 6.074219 -8.421875 L 6.074219 -2.492188 L 1.972656 -8.421875 Z M 1.035156 -8.421875 "/></g></g></g><g fill="#fcffde" fill-opacity="1"><g transform="translate(239.110173, 19.97855)"><g><path d="M 2.621094 -7.351562 L 2.621094 0 L 3.839844 0 L 3.839844 -7.351562 L 6.375 -7.351562 L 6.375 -8.507812 L 0.0703125 -8.507812 L 0.0703125 -7.351562 Z M 2.621094 -7.351562 "/></g></g></g><g fill="#fcffde" fill-opacity="1"><g transform="translate(252.449666, 19.97855)"><g><path d="M 0.421875 -4.210938 C 0.421875 -1.78125 2.359375 0.15625 4.789062 0.15625 C 7.21875 0.15625 9.167969 -1.78125 9.167969 -4.210938 C 9.167969 -6.640625 7.21875 -8.589844 4.789062 -8.589844 C 2.359375 -8.589844 0.421875 -6.640625 0.421875 -4.210938 Z M 1.671875 -4.210938 C 1.671875 -5.945312 3.054688 -7.339844 4.789062 -7.339844 C 6.519531 -7.339844 7.917969 -5.945312 7.917969 -4.210938 C 7.917969 -2.476562 6.519531 -1.09375 4.789062 -1.09375 C 3.054688 -1.09375 1.671875 -2.476562 1.671875 -4.210938 Z M 1.671875 -4.210938 "/></g></g></g></svg>